<svg xmlns="http://www.w3.org/2000/svg" version="1.1" xmlns:xlink="http://www.w3.org/1999/xlink" xmlns:svgjs="http://svgjs.dev/svgjs" viewBox="0 0 800 800" opacity="1"><g stroke-width="1" stroke="hsla(0, 0%, 100%, 1)" fill="none" stroke-linecap="round" transform="matrix(1,0,0,1,-5,115.85598373413086)"><path d="M10,10C35.69444444444444,16.666666666666664,79.86111111111111,45.541666666666664,133.33333333333334,42C186.80555555555557,38.458333333333336,211.11111111111114,-1.583333333333334,266.6666666666667,-7C322.22222222222223,-12.416666666666666,344.44444444444446,21.208333333333336,400,16C455.55555555555554,10.791666666666666,477.7777777777778,-32.833333333333336,533.3333333333334,-32C588.8888888888889,-31.166666666666668,611.1111111111112,18.541666666666668,666.6666666666667,20C722.2222222222223,21.458333333333332,772.2222222222223,-15.625,800,-25"></path><path d="M10,10C35.69444444444444,16.666666666666664,79.86111111111111,45.541666666666664,133.33333333333334,42C186.80555555555557,38.458333333333336,211.11111111111114,-1.583333333333334,266.6666666666667,-7C322.22222222222223,-12.416666666666666,344.44444444444446,21.208333333333336,400,16C455.55555555555554,10.791666666666666,477.7777777777778,-32.833333333333336,533.3333333333334,-32C588.8888888888889,-31.166666666666668,611.1111111111112,18.541666666666668,666.6666666666667,20C722.2222222222223,21.458333333333332,772.2222222222223,-15.625,800,-25" transform="matrix(1,0,0,1,0,558)"></path><path d="M10,10C35.69444444444444,16.666666666666664,79.86111111111111,45.541666666666664,133.33333333333334,42C186.80555555555557,38.458333333333336,211.11111111111114,-1.583333333333334,266.6666666666667,-7C322.22222222222223,-12.416666666666666,344.44444444444446,21.208333333333336,400,16C455.55555555555554,10.791666666666666,477.7777777777778,-32.833333333333336,533.3333333333334,-32C588.8888888888889,-31.166666666666668,611.1111111111112,18.541666666666668,666.6666666666667,20C722.2222222222223,21.458333333333332,772.2222222222223,-15.625,800,-25" transform="matrix(1,0,0,1,0,465)"></path><path d="M10,10C35.69444444444444,16.666666666666664,79.86111111111111,45.541666666666664,133.33333333333334,42C186.80555555555557,38.458333333333336,211.11111111111114,-1.583333333333334,266.6666666666667,-7C322.22222222222223,-12.416666666666666,344.44444444444446,21.208333333333336,400,16C455.55555555555554,10.791666666666666,477.7777777777778,-32.833333333333336,533.3333333333334,-32C588.8888888888889,-31.166666666666668,611.1111111111112,18.541666666666668,666.6666666666667,20C722.2222222222223,21.458333333333332,772.2222222222223,-15.625,800,-25" transform="matrix(1,0,0,1,0,372)"></path><path d="M10,10C35.69444444444444,16.666666666666664,79.86111111111111,45.541666666666664,133.33333333333334,42C186.80555555555557,38.458333333333336,211.11111111111114,-1.583333333333334,266.6666666666667,-7C322.22222222222223,-12.416666666666666,344.44444444444446,21.208333333333336,400,16C455.55555555555554,10.791666666666666,477.7777777777778,-32.833333333333336,533.3333333333334,-32C588.8888888888889,-31.166666666666668,611.1111111111112,18.541666666666668,666.6666666666667,20C722.2222222222223,21.458333333333332,772.2222222222223,-15.625,800,-25" transform="matrix(1,0,0,1,0,279)"></path><path d="M10,10C35.69444444444444,16.666666666666664,79.86111111111111,45.541666666666664,133.33333333333334,42C186.80555555555557,38.458333333333336,211.11111111111114,-1.583333333333334,266.6666666666667,-7C322.22222222222223,-12.416666666666666,344.44444444444446,21.208333333333336,400,16C455.55555555555554,10.791666666666666,477.7777777777778,-32.833333333333336,533.3333333333334,-32C588.8888888888889,-31.166666666666668,611.1111111111112,18.541666666666668,666.6666666666667,20C722.2222222222223,21.458333333333332,772.2222222222223,-15.625,800,-25" transform="matrix(1,0,0,1,0,186)"></path><path d="M10,10C35.69444444444444,16.666666666666664,79.86111111111111,45.541666666666664,133.33333333333334,42C186.80555555555557,38.458333333333336,211.11111111111114,-1.583333333333334,266.6666666666667,-7C322.22222222222223,-12.416666666666666,344.44444444444446,21.208333333333336,400,16C455.55555555555554,10.791666666666666,477.7777777777778,-32.833333333333336,533.3333333333334,-32C588.8888888888889,-31.166666666666668,611.1111111111112,18.541666666666668,666.6666666666667,20C722.2222222222223,21.458333333333332,772.2222222222223,-15.625,800,-25" transform="matrix(1,0,0,1,0,93)"></path></g></svg>